# xmcd
#
# Track frame offsets: 
#        150
#        18217
#        36170
#        51821
#        74391
#        88591
#        106162
#        122020
#        138267
#        154454
#        169357
#        189476
#
# Disc length: 2716 seconds
#
# Revision: 2
# Processed by: cddbd v1.5.2PL0 Copyright (c) Steve Scherf et al.
# Submitted via: ExactAudioCopy v0.99pb5
#
DISCID=9f0a9a0c
DTITLE=Любовь Успенская - Горький Шоколад
DYEAR=2003
DGENRE=Chanson
TTITLE0=Горький Шоколад
TTITLE1=Ветер
TTITLE2=Белым-Бела
TTITLE3=Небо
TTITLE4=Возьми Меня С Собой
TTITLE5=Случайные Связи
TTITLE6=Здравствуй, Мой Дорогой
TTITLE7=Не Повторяйтесь
TTITLE8=Серпантин
TTITLE9=Танго
TTITLE10=Сильней, Чем Прежде
TTITLE11=Я Буду Очень По Тебе Скучать
EXTD=
EXTT0=
EXTT1=
EXTT2=
EXTT3=
EXTT4=
EXTT5=
EXTT6=
EXTT7=
EXTT8=
EXTT9=
EXTT10=
EXTT11=
PLAYORDER=
